<svg width="28" height="28" viewBox="0 0 28 28" fill="none" xmlns="http://www.w3.org/2000/svg">
<path d="M14.0498 0.501953C14.1417 0.509564 14.2743 0.549508 14.458 0.6875L27.3203 12.4463C27.5068 12.6524 27.5404 12.9285 27.4561 13.1484C27.3766 13.3552 27.2035 13.4968 26.9326 13.4834L26.9141 13.8604L26.4072 13.9805L26.4004 25.1621C26.1976 26.346 25.1954 27.339 24.0088 27.4414C23.0745 27.5223 22.0557 27.5025 21.0088 27.4639C20.0201 27.4274 18.9991 27.3754 18.043 27.3857C17.8805 27.2957 17.8144 27.2382 17.7803 27.1758C17.6707 25.9516 17.6937 24.6846 17.7285 23.3887C17.7638 22.0744 17.8101 20.7259 17.7266 19.415C17.5693 16.949 15.7972 15.6572 13.998 15.6572C12.1989 15.6572 10.4268 16.9489 10.2695 19.415C10.1893 20.6751 10.2206 21.9725 10.2559 23.2471C10.2911 24.5215 10.329 25.7726 10.2715 26.9854C10.2445 27.2199 10.0274 27.4231 9.80762 27.4385C9.02253 27.3461 8.12317 27.3888 7.25 27.4346C6.33685 27.4824 5.44067 27.5337 4.62012 27.4697C3.79917 27.4057 3.11641 27.2295 2.60742 26.8682C2.12237 26.5238 1.74325 25.9734 1.58691 25.0391L1.58887 13.9814V13.4619L1.06934 13.4824C0.777965 13.4934 0.609328 13.3425 0.537109 13.1367C0.458519 12.9127 0.501092 12.6284 0.700195 12.4209C2.75713 10.6242 4.75735 8.76412 6.74805 6.90625C8.74865 5.03914 10.74 3.17556 12.7812 1.37207C12.8739 1.29027 12.9648 1.20522 13.0498 1.12598C13.1366 1.04506 13.2181 0.969711 13.2988 0.898438C13.4625 0.753922 13.6021 0.646817 13.7324 0.579102C13.8567 0.51456 13.9571 0.494358 14.0498 0.501953Z" stroke="white"/>
</svg>
