<svg width="19" height="31" viewBox="0 0 19 31" fill="none" xmlns="http://www.w3.org/2000/svg">
<path d="M9.30469 12.051C9.95455 12.0589 10.3613 12.2762 10.7559 12.5657C11.1299 12.84 11.6205 13.3024 12.2471 13.5569C12.5709 13.6884 12.8982 13.76 13.2041 13.8118C13.3568 13.8376 13.5105 13.8601 13.6553 13.8811C13.8024 13.9025 13.9424 13.9229 14.0801 13.9475C14.6234 14.0446 15.0835 14.195 15.4912 14.6008L15.502 14.6116C15.8927 15.0055 16.0442 15.4482 16.1426 15.9719C16.198 16.2671 16.2229 16.4957 16.2793 16.8264C16.3304 17.1259 16.3995 17.4473 16.5234 17.7668C16.6519 18.098 16.829 18.3748 17.0068 18.6174C17.0951 18.7379 17.1868 18.8542 17.2725 18.9631C17.36 19.0744 17.4425 19.1789 17.5205 19.2854C17.8211 19.6955 18.0457 20.1129 18.0537 20.7571C18.0616 21.4011 17.8507 21.8133 17.5586 22.22C17.4825 22.3259 17.4013 22.4298 17.3145 22.5413C17.2293 22.6506 17.137 22.7684 17.0479 22.8899C16.9131 23.0735 16.777 23.2761 16.6592 23.5071L16.5479 23.7483C16.4146 24.0707 16.3418 24.3968 16.2881 24.7014C16.2613 24.8535 16.2377 25.0065 16.2158 25.1506C16.1936 25.2972 16.1727 25.4366 16.1475 25.5735C16.0477 26.1142 15.8959 26.57 15.4922 26.9719C15.0937 27.3686 14.6446 27.5204 14.1133 27.6194C13.8168 27.6746 13.5867 27.7 13.2549 27.7561C12.9543 27.807 12.632 27.8751 12.3115 27.9983C11.9796 28.1259 11.7026 28.3028 11.459 28.4797C11.338 28.5676 11.2208 28.659 11.1113 28.7444C10.9998 28.8314 10.8949 28.9129 10.7881 28.9905C10.376 29.2899 9.95493 29.5148 9.30566 29.5227C8.64607 29.5309 8.23217 29.319 7.82812 29.0295C7.7226 28.954 7.61883 28.8738 7.50781 28.7874C7.39894 28.7026 7.28143 28.6106 7.16016 28.5217C6.97665 28.3872 6.77385 28.2516 6.54199 28.134L6.2998 28.0237C5.97644 27.8912 5.64955 27.8183 5.34375 27.7649C5.19109 27.7382 5.03737 27.7153 4.89258 27.6936C4.74543 27.6715 4.6054 27.6504 4.46777 27.6252C3.92387 27.5258 3.46547 27.3741 3.06152 26.9719C2.65784 26.57 2.50598 26.1142 2.40625 25.5735C2.381 25.4366 2.36008 25.2972 2.33789 25.1506C2.31606 25.0065 2.29242 24.8535 2.26562 24.7014C2.21194 24.3968 2.13914 24.0707 2.00586 23.7483C1.87022 23.4202 1.68845 23.1455 1.50977 22.9045C1.4212 22.7851 1.32896 22.669 1.24414 22.5608C1.15747 22.4502 1.07725 22.3455 1.00098 22.2395C0.707818 21.832 0.492081 21.4119 0.5 20.7571C0.507987 20.1129 0.730449 19.7017 1.0293 19.2952C1.31331 18.9089 1.78129 18.4089 2.03027 17.7668C2.16482 17.42 2.23585 17.0814 2.28711 16.7698C2.34215 16.4351 2.36875 16.1874 2.4248 15.9026C2.5255 15.391 2.6925 14.9505 3.17969 14.5315C3.63921 14.1361 4.07773 14.0126 4.56934 13.9348C5.04229 13.86 5.68889 13.8235 6.31445 13.554C6.64707 13.4107 6.9233 13.2272 7.16602 13.0471C7.28622 12.9579 7.4036 12.866 7.51172 12.7815C7.62193 12.6954 7.72519 12.6153 7.83008 12.5403C8.23201 12.2529 8.64599 12.0432 9.30469 12.051ZM8.7627 17.0042C8.68191 17.0042 8.61809 17.0238 8.60254 17.0286C8.57601 17.0367 8.55239 17.0463 8.53613 17.053C8.50297 17.0667 8.46845 17.0834 8.4375 17.0989C8.37406 17.1307 8.29584 17.1726 8.21191 17.22C8.04231 17.3156 7.82926 17.4427 7.62109 17.5715C7.41345 17.7 7.20394 17.8346 7.04395 17.9456C6.96537 18 6.89029 18.0551 6.83105 18.1038C6.80297 18.1268 6.76624 18.1583 6.73242 18.1946C6.71615 18.212 6.68904 18.2427 6.66309 18.2834C6.64668 18.3092 6.58008 18.4138 6.58008 18.5637V20.8059L7.31836 20.4055L8.09082 19.9856V24.5676H10.876V17.0042H8.7627Z" stroke="white"/>
<path d="M2.23706 0.5H4.38159V10.75C3.9219 10.8065 3.46747 10.9236 3.05054 11.0684L2.81323 11.1553C2.65279 11.2169 2.28856 11.4145 2.01147 11.5625C1.86741 11.6395 1.73284 11.709 1.62866 11.7617C1.62259 11.7566 1.61498 11.7522 1.60815 11.7461C1.5235 11.6709 1.42465 11.5579 1.32788 11.4209C1.23226 11.2855 1.14834 11.1402 1.08765 11.0117C1.0575 10.9479 1.03519 10.8918 1.02026 10.8467C1.01292 10.8244 1.00778 10.8065 1.00464 10.793C1.00363 10.7886 1.00227 10.7851 1.00171 10.7822L0.993896 1.82715C0.994966 1.76202 1.02396 1.64162 1.11401 1.47559C1.20064 1.31593 1.32669 1.14538 1.47534 0.989258C1.62408 0.833048 1.78428 0.703084 1.93237 0.615234C2.08816 0.522888 2.19193 0.5 2.23706 0.5Z" stroke="white"/>
<path d="M16.3164 0.5C16.3619 0.5 16.4662 0.522918 16.6221 0.615234C16.7702 0.703072 16.9304 0.833092 17.0791 0.989258C17.2277 1.14535 17.3539 1.31602 17.4404 1.47559C17.5078 1.59995 17.5409 1.69865 17.5537 1.76758L17.5596 1.82715L17.5508 10.7822C17.5502 10.7851 17.5498 10.7887 17.5488 10.793C17.5457 10.8066 17.5406 10.8252 17.5332 10.8477C17.5182 10.8929 17.496 10.9487 17.4658 11.0127C17.4052 11.1412 17.3211 11.2856 17.2256 11.4209C17.1288 11.558 17.0309 11.6721 16.9463 11.7471C16.9394 11.7532 16.9309 11.7566 16.9248 11.7617C16.8206 11.7088 16.6868 11.6384 16.543 11.5615C16.2661 11.4136 15.9007 11.2157 15.7393 11.1543H15.7383C15.2602 10.9711 14.7203 10.8174 14.1729 10.75V0.5H16.3164Z" stroke="white"/>
<path d="M10.9746 0.5V9.18457C9.86895 8.8355 8.68511 8.83547 7.5791 9.18457V0.5H10.9746Z" stroke="white"/>
</svg>
