<svg width="27" height="27" viewBox="0 0 27 27" fill="none" xmlns="http://www.w3.org/2000/svg">
<path d="M17.9316 2.77759C18.1444 2.74551 18.2945 2.77393 18.4316 2.83423C18.5086 2.86811 18.5864 2.91399 18.6719 2.97388L18.9609 3.19946C20.1272 4.17084 22.1717 6.21414 23.1611 7.37622C23.435 7.69777 23.5753 7.94168 23.6162 8.15356C23.6502 8.32956 23.6257 8.5435 23.4199 8.8479L8.12109 24.0833C7.12064 24.4398 6.08183 24.7094 5.01855 24.9631C3.93818 25.2209 2.82031 25.4658 1.73047 25.7678C1.32267 25.8319 0.995247 25.7073 0.786133 25.4993C0.576461 25.2904 0.451311 24.9641 0.517578 24.5569C0.820087 23.4742 1.06684 22.3637 1.3252 21.2903C1.5801 20.2312 1.85083 19.1966 2.20898 18.2004L17.4248 3.04028C17.5622 2.91268 17.7835 2.80005 17.9316 2.77759Z" stroke="white"/>
<path d="M21.7859 0.518555C22.1346 0.459727 22.4011 0.531861 22.6853 0.75C22.9812 0.977602 23.5985 1.55455 24.2205 2.17383C24.687 2.63837 25.1301 3.10057 25.4187 3.42676L25.6511 3.70312C26.3856 4.65061 25.4133 5.76254 24.4031 5.23145H24.4021C24.3975 5.22846 24.3852 5.22063 24.364 5.20508C24.333 5.18231 24.2926 5.15034 24.2429 5.10938C24.1437 5.02754 24.019 4.91749 23.8748 4.78613C23.5866 4.52377 23.2343 4.1869 22.8816 3.83984C22.1631 3.13287 21.4879 2.42929 21.3328 2.22852C21.079 1.90022 21.0079 1.48328 21.0974 1.14648C21.1823 0.827436 21.4055 0.584082 21.7869 0.519531L21.7859 0.518555Z" stroke="white"/>
</svg>
