<svg width="31" height="30" viewBox="0 0 31 30" fill="none" xmlns="http://www.w3.org/2000/svg">
<path d="M13.6211 19.5223C16.0944 19.3977 19.0606 19.5572 21.8682 20.1844C24.6824 20.8132 27.2905 21.9027 29.0977 23.6053C30.3889 24.8221 30.6224 26.0149 30.2852 26.8905C29.9417 27.7819 28.9292 28.5562 27.2803 28.7626H3.64258C2.20893 28.6315 1.1707 27.9351 0.736328 27.0721C0.316577 26.2378 0.396987 25.1168 1.47656 23.9589C2.79845 22.5413 4.8302 21.4773 7.0625 20.743C9.28722 20.0113 11.663 19.6222 13.6221 19.5233L13.6211 19.5223Z" stroke="white"/>
<path d="M14.9995 0.514648C21.4204 0.127248 25.8308 7.01528 22.8188 12.6865C19.9682 18.0535 12.3269 18.5998 8.73975 13.6719C4.87135 8.35765 8.45179 0.911493 15.0005 0.515625L14.9995 0.514648Z" stroke="white"/>
</svg>
