<svg width="33" height="33" viewBox="0 0 33 33" fill="none" xmlns="http://www.w3.org/2000/svg">
<path d="M16.5355 0.501953C16.5657 0.527476 16.5903 0.548582 16.6117 0.573242L16.6547 0.629883C16.7049 0.702721 16.8018 0.881628 16.9359 1.15137C17.0654 1.41171 17.2125 1.71914 17.3607 2.02637C17.5069 2.32946 17.6544 2.63277 17.7806 2.87012C17.8434 2.98812 17.9053 3.09923 17.9623 3.18848C17.9906 3.23279 18.0229 3.27963 18.057 3.32227C18.0836 3.35546 18.142 3.42591 18.2279 3.48047L18.2689 3.50586L18.3138 3.52344C18.5603 3.61958 18.9034 3.67526 19.2328 3.71582C19.5745 3.75788 19.9675 3.79074 20.3334 3.8252C20.7077 3.86045 21.0562 3.8977 21.3392 3.94727C21.4804 3.97199 21.5946 3.99748 21.681 4.02441C21.7385 4.04233 21.7709 4.05773 21.7865 4.06543C21.7861 4.07507 21.785 4.08949 21.7787 4.10645C21.773 4.12167 21.7626 4.13453 21.7533 4.14746L19.4017 6.31445L19.2006 6.5L19.2474 6.76953L19.7855 9.81445C19.7877 9.84612 19.7826 9.86161 19.7806 9.86621C19.7787 9.87066 19.7775 9.87157 19.7767 9.87207C19.7757 9.87278 19.7691 9.87746 19.7523 9.87891C19.7362 9.88027 19.7073 9.87811 19.6654 9.8623L16.7484 8.44434L16.684 8.41309L16.6136 8.40137C16.4648 8.37606 16.3425 8.40514 16.266 8.42969C16.2313 8.44084 16.1987 8.45363 16.1849 8.45898L16.1654 8.46582C15.6758 8.61675 15.1136 8.95331 14.6351 9.23242C14.1785 9.49883 13.7917 9.71739 13.4847 9.82324L13.3578 9.86133C13.3007 9.87583 13.2625 9.87769 13.2396 9.87793C13.2383 9.87335 13.2361 9.86828 13.2347 9.8623C13.2246 9.81905 13.219 9.75296 13.224 9.66406C13.2473 9.24861 13.3504 8.79057 13.4701 8.28027C13.5855 7.78849 13.717 7.24394 13.7601 6.72461L13.7806 6.48535L13.6058 6.32031L11.2201 4.06543C11.22 4.06374 11.2192 4.06214 11.2191 4.06055L14.5804 3.55371L14.7894 3.52246L14.9125 3.35059C15.2368 2.89763 15.4756 2.37526 15.6888 1.90527C15.9102 1.41732 16.1046 0.985827 16.351 0.625977C16.3847 0.576706 16.4146 0.546978 16.4691 0.501953H16.5355Z" stroke="white"/>
<path d="M20.3972 12.9039V28.8854H12.6062V12.8707C12.6071 12.87 12.6082 12.8695 12.6091 12.8688L20.3972 12.9039Z" stroke="white"/>
<path d="M10.507 18.0272V28.8846H3.26672V18.0272H10.507Z" stroke="white"/>
<path d="M0.342909 30.4302L32.5401 30.4138C32.7172 30.4113 32.9493 30.6136 32.9814 30.773C33.0218 30.9719 33.0062 32.6022 32.9475 32.7366C32.9043 32.8339 32.6732 33.013 32.541 32.9993H0.463092C0.330064 33.0122 0.0988726 32.8339 0.0566708 32.7366C-0.00296214 32.6022 -0.0176406 30.9719 0.0227264 30.773C0.0520841 30.63 0.21447 30.5051 0.344745 30.4302H0.342909Z" fill="white"/>
<path d="M29.7363 21.121V28.8856H22.4951V21.121H29.7363Z" stroke="white"/>
</svg>
